 <!-- No className: className="w-6 h-6 align-middle fill-current overflow-hidden" -->
 <svg version="1.1" xmlns="http://www.w3.org/2000/svg" viewBox="0 0 256 256" enableBackground="new 0 0 256 256">
  <path d="M229.2,60.6h-23.6l-15.8,163c0,12.4-10.1,22.5-22.5,22.5H88.7c-12.4,0-22.5-10.1-22.5-22.5l-15.8-163H26.8c-3.1,0-5.6-2.5-5.6-5.6s2.5-5.6,5.6-5.6h22.5h11.2h16.9V32.5C77.4,20.1,87.5,10,99.9,10h56.2c12.4,0,22.5,10.1,22.5,22.5v16.9h16.9h11.2h22.5c3.1,0,5.6,2.5,5.6,5.6S232.3,60.6,229.2,60.6z M167.3,32.4c0-6.2-5-11.2-11.2-11.2H99.9c-6.2,0-11.2,5-11.2,11.2v16.9h78.7V32.4z M61.6,60.6l15.8,163c0,6.2,5,11.2,11.2,11.2h78.7c6.2,0,11.2-5,11.2-11.2l15.8-163H61.6z M156.1,212.3c-3.1,0-5.6-2.5-5.6-5.6l5.6-118c0-3.1,2.5-5.6,5.6-5.6c3.1,0,5.6,2.5,5.6,5.6l-5.6,118C161.7,209.8,159.2,212.3,156.1,212.3z M128,212.3c-3.1,0-5.6-2.5-5.6-5.6v-118c0-3.1,2.5-5.6,5.6-5.6s5.6,2.5,5.6,5.6v118C133.6,209.8,131.1,212.3,128,212.3z M99.9,212.3c-3.1,0-5.6-2.5-5.6-5.6l-5.6-118c0-3.1,2.5-5.6,5.6-5.6c3.1,0,5.6,2.5,5.6,5.6l5.6,118C105.5,209.8,103,212.3,99.9,212.3z"/>
 </svg>